<?xml version="1.0" standalone="no"?>
<!DOCTYPE svg PUBLIC "-//W3C//DTD SVG 20010904//EN"
 "http://www.w3.org/TR/2001/REC-SVG-20010904/DTD/svg10.dtd">
<svg version="1.0" xmlns="http://www.w3.org/2000/svg"
 width="729.000000pt" height="729.000000pt" viewBox="0 0 729.000000 729.000000"
 preserveAspectRatio="xMidYMid meet">
<metadata>
Created by potrace 1.11, written by Peter Selinger 2001-2013
</metadata>
<g transform="translate(0.000000,729.000000) scale(0.100000,-0.100000)"
fill="#000000" stroke="none">
<path d="M3419 7286 c-2 -2 -38 -7 -79 -10 -355 -31 -761 -134 -1115 -284 -48
-20 -337 -164 -380 -190 -74 -43 -246 -152 -255 -162 -3 -3 -21 -17 -40 -30
-133 -91 -362 -300 -470 -429 -25 -29 -55 -65 -68 -80 -49 -55 -192 -280 -242
-380 -86 -172 -153 -366 -179 -521 -6 -36 -13 -78 -16 -95 -13 -69 -13 -275 0
-360 17 -115 21 -135 52 -225 132 -380 460 -645 915 -740 132 -27 136 -28 245
-36 269 -20 432 -4 708 70 70 19 251 75 280 86 11 4 34 13 50 18 140 48 487
172 510 182 57 25 467 164 595 202 794 236 1368 221 1770 -46 147 -97 248
-213 315 -360 l33 -73 79 -38 c75 -36 202 -116 272 -172 l33 -27 -7 54 c-13
106 -17 126 -41 220 -32 121 -114 293 -191 395 -219 294 -619 500 -1053 542
-143 14 -560 5 -591 -13 -3 -2 -28 -6 -55 -9 -27 -4 -116 -20 -199 -36 -137
-28 -200 -43 -355 -86 -30 -8 -68 -18 -85 -23 -73 -20 -323 -101 -460 -150
-44 -15 -145 -51 -225 -80 -80 -28 -154 -55 -165 -60 -59 -26 -501 -173 -603
-201 -245 -67 -440 -81 -661 -49 -434 62 -695 240 -795 540 -45 137 -57 327
-31 480 80 460 406 919 905 1277 218 156 527 313 776 394 55 17 108 35 119 40
11 4 52 17 90 27 346 96 710 145 1005 137 199 -6 254 -11 468 -46 352 -57 754
-221 1202 -489 138 -82 296 -189 380 -257 8 -7 33 -26 55 -43 205 -161 415
-369 585 -580 96 -120 269 -376 334 -492 38 -70 42 -74 65 -59 10 7 3 31 -34
121 -130 308 -290 574 -514 855 -134 168 -345 380 -510 511 -13 11 -28 24 -35
29 -54 49 -262 192 -386 267 -390 234 -889 406 -1330 458 -52 6 -122 15 -155
19 -58 8 -508 14 -516 7z"/>
<path d="M3706 6442 c-2 -2 -39 -5 -82 -8 -145 -9 -169 -11 -194 -18 -14 -3
-47 -7 -75 -9 -27 -1 -55 -6 -61 -9 -6 -4 -30 -8 -55 -9 -24 -1 -51 -6 -60
-10 -9 -5 -31 -10 -50 -12 -19 -3 -41 -7 -49 -10 -15 -6 -54 -14 -117 -24 -18
-3 -33 -8 -33 -12 0 -6 -21 -11 -62 -14 -10 -1 -18 -5 -18 -9 0 -4 -13 -8 -29
-8 -17 0 -33 -4 -36 -10 -3 -5 -17 -10 -31 -10 -13 0 -24 -4 -24 -10 0 -5 -9
-10 -19 -10 -11 0 -41 -9 -68 -21 -26 -11 -56 -21 -65 -22 -10 -1 -18 -5 -18
-9 0 -4 -11 -8 -25 -8 -14 0 -25 -4 -25 -10 0 -5 -7 -10 -16 -10 -8 0 -13 -4
-10 -8 2 -4 -3 -8 -12 -8 -27 -1 -42 -7 -108 -41 -34 -17 -65 -29 -68 -26 -3
4 -6 1 -6 -5 0 -7 -6 -12 -14 -12 -8 0 -16 -3 -18 -7 -1 -5 -29 -21 -61 -38
-100 -51 -112 -58 -117 -64 -8 -9 -62 -45 -92 -60 -15 -8 -37 -22 -47 -33 -11
-10 -25 -18 -31 -18 -5 0 -10 -4 -10 -10 0 -5 -5 -10 -11 -10 -6 0 -16 -6 -24
-12 -30 -29 -56 -48 -66 -48 -5 0 -7 -4 -4 -10 3 -5 1 -10 -5 -10 -6 0 -17 -6
-25 -12 -7 -7 -32 -29 -56 -48 -49 -38 -323 -310 -314 -310 4 0 0 -7 -9 -15
-8 -9 -32 -37 -53 -63 -21 -26 -46 -56 -56 -66 -9 -11 -17 -24 -17 -29 0 -5
-8 -17 -17 -26 -25 -22 -83 -107 -83 -120 0 -6 -5 -11 -11 -11 -6 0 -8 -7 -5
-16 3 -8 2 -12 -4 -9 -6 3 -10 2 -10 -3 0 -5 -11 -26 -25 -46 -13 -20 -22 -36
-18 -36 3 0 0 -6 -6 -13 -6 -8 -24 -39 -40 -71 -26 -52 -27 -61 -19 -109 6
-28 16 -70 24 -92 8 -22 16 -44 17 -50 1 -5 8 -16 15 -23 7 -8 10 -18 7 -23
-4 -5 1 -9 9 -9 9 0 15 -3 14 -7 -7 -22 106 -152 116 -135 5 9 49 139 50 152
1 3 9 21 18 40 9 19 18 42 20 50 2 8 5 17 8 20 3 3 23 40 45 83 21 42 43 77
47 77 4 0 7 3 6 8 -2 4 15 34 37 67 42 63 44 66 75 104 11 13 20 27 20 30 0 4
15 23 33 42 17 19 50 57 72 84 43 53 205 218 205 209 0 -3 11 7 24 23 13 16
36 35 50 43 16 8 25 19 21 27 -2 8 0 11 5 8 6 -4 16 0 24 7 24 23 56 48 61 48
5 0 37 25 60 48 8 6 18 12 24 12 6 0 11 5 11 10 0 6 5 10 10 10 6 0 29 14 52
30 22 17 47 30 55 30 7 0 13 5 13 10 0 6 7 10 15 10 8 0 15 5 15 10 0 6 7 10
15 10 8 0 15 5 15 10 0 6 7 10 15 10 8 0 36 13 62 28 59 34 139 72 153 72 6 0
9 4 6 8 -2 4 7 9 22 10 14 1 28 5 31 10 6 8 40 21 136 55 33 12 62 24 65 27 3
3 14 6 25 8 11 2 36 9 55 16 19 7 43 12 53 11 9 -2 15 1 11 6 -4 7 29 14 39 7
1 -1 11 4 23 10 11 6 32 13 45 16 13 2 44 9 69 15 24 5 46 8 49 6 2 -3 10 0
18 7 7 6 34 11 58 11 25 0 45 3 45 6 0 7 47 13 103 15 15 0 27 4 27 9 0 5 8 3
17 -4 11 -10 14 -10 9 -1 -7 12 -1 13 142 16 23 1 42 4 42 8 0 8 416 3 525 -6
39 -3 90 -11 115 -16 25 -5 66 -11 92 -12 27 -2 48 -6 48 -10 0 -3 8 -5 17 -4
10 2 33 -1 53 -6 19 -4 55 -11 80 -14 25 -4 48 -11 51 -17 4 -5 14 -7 22 -4 8
3 26 -1 41 -8 14 -8 26 -12 26 -10 0 2 15 -1 33 -6 17 -6 46 -13 62 -16 17 -3
33 -10 37 -16 4 -7 8 -9 8 -5 0 7 115 -30 165 -52 32 -14 95 -39 100 -39 3 0
72 -35 153 -77 81 -42 157 -82 169 -88 13 -6 23 -14 23 -18 0 -5 5 -8 11 -8
11 0 214 -134 236 -156 8 -7 27 -21 43 -31 17 -9 30 -21 30 -26 0 -4 5 -5 10
-2 6 3 10 -1 10 -9 0 -9 9 -16 21 -16 11 0 18 -4 15 -8 -3 -5 6 -15 19 -22 13
-7 22 -17 19 -22 -3 -4 0 -8 5 -8 12 0 56 -36 108 -87 18 -18 38 -33 44 -33 7
0 10 -3 6 -6 -8 -8 18 -34 34 -34 7 0 10 -2 7 -5 -3 -3 28 -40 68 -82 40 -42
71 -80 68 -85 -3 -4 1 -8 8 -8 7 -1 33 -28 58 -61 25 -33 57 -75 72 -93 15
-18 25 -36 21 -40 -3 -3 -2 -6 4 -6 6 0 20 -16 32 -35 11 -19 18 -35 15 -35
-3 0 -39 34 -80 75 -41 41 -76 75 -78 75 -4 0 -44 34 -104 88 -20 17 -39 32
-42 32 -4 0 -18 9 -31 20 -39 32 -42 34 -92 68 -26 18 -52 32 -58 32 -5 0 -9
5 -9 10 0 6 -7 10 -15 10 -8 0 -15 4 -15 8 0 4 -22 19 -50 33 -27 13 -50 28
-50 32 0 5 -4 6 -9 2 -5 -3 -16 0 -23 7 -21 20 -56 38 -73 38 -8 0 -15 4 -15
8 0 5 -18 15 -40 22 -22 7 -40 17 -40 22 0 4 -7 8 -15 8 -8 0 -39 11 -70 25
-30 14 -68 28 -85 31 -16 4 -30 10 -30 15 0 5 -9 9 -20 9 -10 0 -32 5 -47 11
-15 6 -37 15 -48 19 -29 12 -115 33 -131 33 -8 0 -14 3 -14 7 0 4 -17 10 -37
13 -79 13 -108 19 -118 26 -5 4 -28 9 -50 10 -22 2 -45 7 -51 12 -6 5 -13 7
-16 4 -4 -4 -37 0 -158 20 -14 2 -49 5 -77 7 -29 2 -53 5 -53 8 0 3 -16 6 -35
6 -20 1 -35 -3 -35 -10 0 -7 -3 -6 -8 2 -7 9 -59 12 -223 11 -118 0 -225 0
-238 0 -14 1 -28 -5 -33 -11 -5 -9 -8 -9 -8 -2 0 12 -19 12 -95 0 -22 -3 -60
-6 -85 -7 -25 -1 -52 -6 -61 -10 -8 -4 -43 -9 -77 -12 -34 -2 -65 -7 -69 -10
-3 -4 -22 -7 -40 -7 -19 0 -32 -3 -30 -7 3 -5 -11 -9 -31 -11 -43 -3 -61 -6
-82 -15 -15 -7 -50 -15 -105 -24 -16 -3 -35 -9 -40 -14 -6 -4 -22 -10 -35 -13
-14 -3 -38 -9 -55 -12 -16 -4 -32 -10 -35 -13 -6 -8 -92 -35 -102 -33 -5 1 -8
-3 -8 -8 0 -6 -11 -10 -25 -10 -14 0 -25 -4 -25 -10 0 -5 -7 -10 -16 -10 -8 0
-48 -15 -89 -34 -40 -19 -76 -31 -79 -28 -3 3 -6 1 -6 -5 0 -6 -27 -22 -60
-37 -32 -15 -62 -31 -65 -37 -4 -5 -11 -7 -16 -4 -5 4 -9 2 -9 -3 0 -5 -15
-15 -32 -23 -18 -7 -35 -16 -38 -20 -3 -4 -26 -18 -52 -32 -26 -14 -44 -28
-41 -31 4 -3 2 -6 -4 -6 -12 0 -107 -61 -111 -72 -2 -5 -9 -8 -16 -8 -6 0 -18
-9 -26 -20 -8 -11 -18 -20 -23 -20 -5 0 -14 -6 -22 -12 -7 -7 -32 -29 -55 -48
-22 -19 -71 -63 -107 -97 -37 -35 -71 -63 -76 -63 -6 0 -8 -3 -4 -6 3 -3 -9
-21 -26 -39 -18 -18 -45 -48 -62 -67 -16 -19 -39 -45 -49 -57 -20 -22 -20 -22
0 -15 10 4 24 15 31 23 7 9 13 12 13 8 0 -4 10 1 22 13 12 11 27 20 33 20 7 0
20 9 30 20 10 11 24 20 32 20 7 0 13 4 13 8 0 5 23 20 52 35 29 15 48 27 43
27 -5 0 15 12 45 28 30 15 57 30 58 35 2 4 12 7 22 7 10 0 20 4 22 8 4 10 219
115 236 115 6 0 12 4 12 9 0 4 8 8 18 8 10 0 28 9 40 20 13 13 22 16 22 8 0
-9 3 -9 12 0 7 7 20 12 30 12 10 0 18 3 18 8 0 6 52 27 87 35 7 2 16 6 19 10
4 4 18 7 30 7 13 0 26 5 29 10 3 6 17 10 31 10 13 0 24 5 24 10 0 6 13 10 29
10 16 0 31 4 33 10 2 5 18 10 36 12 17 1 32 6 32 10 0 4 12 8 26 8 14 0 33 4
42 9 9 5 31 11 47 15 17 3 59 12 95 21 36 9 76 18 90 20 14 2 25 5 25 6 0 1 9
3 20 4 65 10 81 13 95 19 8 3 38 8 65 10 28 2 61 6 75 10 14 3 52 8 85 10 33
3 71 7 85 10 14 3 79 7 145 8 66 2 123 8 127 13 5 6 8 6 8 -1 0 -13 58 -12 80
1 7 5 11 4 7 -1 -3 -5 35 -9 86 -10 165 -2 247 -8 247 -19 0 -5 5 -3 10 5 9
13 10 13 10 0 0 -13 1 -13 10 0 5 8 10 10 10 4 0 -7 19 -12 45 -12 25 -1 50
-4 54 -7 5 -2 37 -8 72 -11 35 -3 72 -10 82 -15 9 -6 17 -8 17 -5 0 2 17 0 38
-5 52 -13 122 -28 157 -35 17 -3 32 -9 35 -12 3 -4 19 -8 35 -10 17 -2 34 -8
40 -13 5 -5 22 -9 37 -9 15 0 28 -4 28 -8 0 -4 12 -9 27 -10 15 -1 29 -5 32
-10 3 -4 15 -9 26 -10 10 -2 40 -13 65 -24 86 -38 148 -61 152 -57 2 2 14 -6
28 -18 13 -13 35 -23 49 -23 13 0 21 -3 18 -6 -4 -4 17 -18 45 -31 29 -13 55
-27 58 -31 3 -4 21 -15 40 -24 38 -19 92 -50 100 -58 3 -3 25 -18 50 -35 25
-16 50 -35 57 -43 6 -7 20 -14 31 -15 11 0 20 -5 19 -11 -1 -5 8 -15 20 -21
13 -7 20 -15 16 -18 -3 -4 -1 -7 5 -7 13 0 62 -40 95 -77 12 -13 27 -23 34
-23 7 0 13 -4 13 -8 0 -4 39 -48 88 -98 102 -105 154 -164 145 -164 -3 0 6
-11 21 -25 14 -13 26 -28 26 -34 0 -5 3 -11 8 -13 4 -1 27 -32 51 -68 25 -36
50 -68 55 -72 6 -4 8 -8 3 -8 -8 0 42 -81 58 -92 5 -4 6 -8 1 -8 -5 0 -1 -9 9
-20 10 -11 14 -20 10 -20 -4 0 0 -9 10 -20 10 -11 14 -20 9 -20 -5 0 -4 -4 1
-8 16 -11 150 -307 146 -320 -1 -1 6 -18 14 -38 8 -20 15 -40 15 -45 0 -4 4
-18 9 -31 5 -13 9 -26 10 -30 1 -4 7 -22 12 -40 36 -123 82 -324 93 -408 8
-59 18 -101 24 -95 6 6 8 20 13 90 1 22 5 44 8 49 2 6 6 33 8 60 6 103 9 142
14 151 8 14 3 410 -5 475 -4 30 -9 75 -11 100 -11 124 -54 341 -96 480 -17 58
-33 117 -36 133 -3 15 -10 27 -16 27 -6 0 -7 3 -4 6 4 4 0 19 -7 33 -16 32
-38 92 -39 109 0 6 -4 12 -9 12 -4 0 -8 6 -8 13 0 19 -130 280 -144 289 -6 4
-7 8 -3 8 4 0 -6 20 -23 44 -16 25 -30 49 -30 54 0 5 -9 17 -20 27 -11 10 -20
22 -20 27 0 10 -34 60 -62 92 -10 11 -30 38 -45 60 -15 23 -40 53 -55 69 -15
15 -26 27 -23 27 6 0 -30 41 -96 110 -26 27 -44 51 -41 54 3 3 0 6 -6 6 -14 0
-62 47 -54 54 3 3 0 6 -6 6 -10 0 -51 34 -131 110 -14 14 -53 45 -86 70 -33
25 -62 48 -65 51 -3 3 -34 25 -70 49 -36 24 -66 47 -68 52 -2 4 -10 8 -18 8
-8 0 -14 4 -14 8 0 5 -16 14 -35 22 -19 8 -35 16 -35 19 0 3 -21 17 -47 31
-27 13 -50 27 -53 30 -10 11 -176 90 -187 90 -7 0 -13 4 -13 8 0 5 -18 14 -40
21 -22 6 -40 16 -40 22 0 6 -4 8 -8 5 -4 -2 -21 1 -37 9 -43 19 -69 29 -80 30
-5 1 -26 9 -46 18 -19 9 -48 19 -65 23 -16 4 -33 10 -39 14 -9 7 -52 20 -85
26 -16 3 -85 23 -110 32 -21 7 -41 11 -67 14 -13 1 -23 5 -23 8 0 3 -11 7 -24
8 -13 1 -63 11 -111 22 -48 11 -90 19 -92 16 -3 -2 -19 0 -36 5 -18 5 -54 12
-82 15 -27 2 -70 8 -95 13 -43 8 -97 12 -207 15 -29 0 -53 3 -53 6 0 5 -319 8
-324 2z"/>
<path d="M267 4690 c-3 -8 -8 -44 -12 -80 -4 -36 -13 -119 -20 -185 -13 -118
-13 -525 0 -625 73 -555 215 -944 492 -1350 153 -223 366 -450 573 -610 25
-19 47 -37 50 -41 10 -12 253 -172 314 -205 58 -33 243 -124 316 -157 79 -35
211 -83 375 -137 193 -63 548 -127 810 -146 76 -5 496 -5 525 1 14 3 54 7 90
10 36 3 79 8 95 10 17 3 50 7 75 10 25 3 56 8 70 12 14 3 39 7 55 9 17 2 48 8
70 13 22 6 81 19 130 31 50 12 98 25 107 31 10 5 25 9 33 9 16 0 179 52 220
69 11 5 47 19 80 32 53 20 126 52 245 107 19 9 37 18 40 21 3 4 30 19 60 34
76 38 228 127 255 149 6 5 48 36 95 71 141 103 191 147 345 301 143 144 228
248 340 416 112 169 169 282 167 331 -2 53 -53 188 -93 245 -38 56 -98 124
-109 124 -4 0 -22 -44 -40 -97 -72 -218 -209 -449 -384 -653 -36 -42 -263
-268 -293 -292 -138 -109 -284 -211 -373 -259 -25 -13 -47 -27 -50 -30 -9 -10
-233 -116 -315 -149 -94 -38 -245 -89 -295 -101 -19 -4 -75 -18 -125 -29 -116
-28 -170 -39 -225 -45 -25 -3 -51 -8 -58 -11 -8 -2 -35 -6 -60 -9 -26 -3 -65
-8 -87 -11 -22 -3 -141 -8 -265 -11 -227 -5 -434 6 -580 32 -14 2 -43 7 -65
10 -22 3 -98 19 -170 36 -71 17 -148 35 -170 39 -124 27 -312 101 -505 199
-69 35 -135 69 -147 75 -13 6 -23 14 -23 19 0 4 -4 7 -10 7 -21 0 -359 233
-390 269 -3 3 -34 31 -70 61 -164 138 -369 365 -482 534 l-41 61 64 -62 c124
-119 133 -127 240 -210 172 -133 349 -235 609 -351 77 -34 310 -109 420 -135
170 -41 246 -55 442 -81 227 -31 624 -25 898 13 386 52 768 179 1110 367 66
36 278 174 302 196 7 7 34 29 58 48 25 19 47 38 48 42 2 4 8 8 12 8 21 0 335
328 324 339 -2 2 -37 -19 -79 -47 -41 -29 -79 -52 -84 -52 -5 0 -11 -4 -13 -8
-9 -21 -371 -217 -518 -281 -373 -160 -829 -279 -1185 -308 -33 -2 -96 -8
-140 -12 -140 -14 -506 -5 -640 15 -16 2 -52 7 -80 9 -45 5 -82 11 -180 30
-16 3 -47 9 -67 12 -21 3 -38 10 -38 15 0 5 -4 7 -9 4 -9 -6 -128 20 -153 35
-10 5 -26 9 -35 9 -20 0 -142 42 -268 92 -98 39 -300 139 -375 186 -75 47
-164 106 -170 112 -3 3 -21 17 -40 30 -19 13 -37 27 -40 30 -3 3 -30 25 -60
49 -85 69 -278 267 -351 361 -250 320 -435 737 -518 1165 -11 61 -27 142 -35
180 -7 39 -16 63 -19 55z"/>
<path d="M854 3958 c3 -18 5 -48 5 -66 1 -18 4 -31 9 -29 4 3 7 -9 7 -26 1
-44 11 -90 24 -116 7 -11 9 -21 6 -21 -15 0 80 -216 127 -286 16 -23 28 -47
28 -54 0 -6 4 -9 8 -6 4 3 16 -11 27 -30 10 -19 22 -34 27 -34 5 0 6 -4 3 -10
-3 -5 0 -10 7 -10 7 0 22 -14 33 -30 11 -16 25 -30 32 -30 6 0 15 -9 18 -20 3
-11 11 -20 16 -20 6 0 27 -16 47 -35 20 -19 40 -35 44 -35 4 0 13 -6 20 -13 7
-7 38 -28 68 -47 30 -19 58 -38 61 -43 3 -5 9 -8 13 -8 3 1 38 -15 76 -34 39
-20 76 -33 82 -29 7 4 8 3 4 -4 -5 -8 0 -12 14 -12 11 0 32 -7 45 -16 14 -9
32 -13 42 -10 10 4 14 4 10 -1 -5 -4 20 -15 55 -25 55 -16 88 -24 183 -43 11
-3 41 -6 66 -7 26 -2 45 -6 43 -9 -4 -8 -4 -8 246 -8 243 0 320 2 320 10 0 3
15 7 33 7 44 3 60 6 76 16 10 6 12 5 7 -2 -4 -7 -1 -12 8 -12 9 0 16 5 16 10
0 6 3 9 8 9 4 -1 24 -1 45 0 27 1 36 5 31 14 -6 10 -4 10 7 0 14 -14 33 -18
25 -5 -2 4 3 8 12 8 20 1 72 10 127 23 22 6 41 8 44 6 2 -3 9 -1 15 4 6 5 25
12 41 15 17 3 47 9 68 15 20 5 37 6 37 2 0 -3 4 -1 8 5 4 7 21 14 37 15 17 2
33 8 36 12 3 4 17 8 30 9 23 0 55 11 93 30 13 7 16 6 11 -2 -4 -7 5 -4 21 6
15 11 28 17 29 14 0 -5 357 112 365 120 3 3 14 6 25 8 19 3 52 15 87 33 10 5
25 9 33 9 8 0 23 4 33 10 36 20 160 58 168 52 4 -4 4 -1 0 6 -5 8 0 12 13 12
27 0 31 1 60 16 14 7 28 11 33 8 4 -3 8 -1 8 4 0 9 91 39 99 33 2 -1 7 2 10 8
4 6 19 12 34 13 15 1 27 6 27 10 0 4 8 8 18 8 28 0 93 26 85 34 -4 4 0 4 9 1
9 -4 19 -1 23 4 3 6 11 9 16 5 5 -3 15 -1 22 4 7 6 24 13 37 15 14 2 33 7 42
11 9 4 25 9 35 11 10 2 18 4 18 5 0 1 11 3 25 6 14 2 37 9 53 15 15 6 38 12
52 12 14 0 25 3 25 7 0 3 6 7 13 7 6 1 30 4 52 8 119 21 373 26 460 10 17 -4
50 -8 75 -11 25 -2 52 -7 60 -11 16 -7 29 -10 73 -14 15 -2 27 -7 27 -11 0 -4
3 -7 8 -6 14 4 112 -26 112 -34 0 -4 7 -8 15 -8 9 0 43 -15 77 -32 33 -18 69
-37 79 -43 11 -5 19 -13 19 -17 0 -5 7 -8 15 -8 8 0 15 -5 15 -11 0 -5 5 -7
10 -4 6 3 10 -1 10 -9 0 -9 5 -16 11 -16 10 0 58 -47 104 -101 45 -53 138
-249 119 -249 -4 0 -2 -6 4 -12 5 -7 11 -29 13 -48 2 -19 6 -39 10 -45 8 -12
5 -249 -5 -325 -4 -30 -14 -80 -23 -110 -9 -30 -18 -60 -19 -67 -3 -19 -26
-87 -33 -98 -3 -5 -6 -14 -7 -20 -1 -5 -14 -37 -29 -70 -16 -33 -29 -62 -29
-66 -1 -3 -23 -43 -50 -90 -27 -46 -48 -85 -47 -87 1 -1 -5 -10 -14 -18 -8 -9
-13 -20 -10 -25 4 -5 -1 -9 -9 -9 -9 0 -16 -6 -16 -13 0 -7 -8 -20 -17 -29
-26 -25 -45 -48 -38 -48 4 0 0 -6 -7 -14 -7 -7 -29 -32 -48 -56 -19 -23 -51
-59 -70 -79 -19 -21 -42 -47 -51 -57 -31 -37 -110 -104 -122 -104 -8 0 -7 -4
3 -10 12 -8 10 -10 -8 -10 -13 0 -20 -4 -17 -10 3 -5 -1 -10 -10 -10 -9 0 -13
-4 -10 -10 3 -5 0 -10 -7 -10 -8 0 -20 -9 -28 -20 -8 -11 -20 -20 -26 -20 -7
0 -14 -3 -16 -7 -6 -14 -105 -93 -116 -93 -6 0 -12 -4 -14 -8 -3 -9 -123 -92
-133 -92 -3 0 -15 -9 -27 -20 -12 -11 -28 -20 -35 -20 -7 0 -13 -4 -13 -10 0
-5 -9 -10 -21 -10 -11 0 -17 -4 -14 -10 4 -6 -6 -10 -22 -10 -22 0 -25 -2 -13
-10 13 -8 12 -10 -3 -10 -9 0 -35 -11 -58 -25 -22 -14 -44 -23 -49 -20 -6 4
-10 2 -10 -3 0 -4 -16 -14 -35 -22 -19 -7 -32 -16 -30 -20 2 -3 -8 -7 -23 -8
-15 -1 -28 -7 -30 -12 -2 -6 -12 -10 -22 -10 -10 0 -21 -4 -24 -9 -3 -5 -35
-19 -71 -32 -36 -12 -65 -27 -65 -33 0 -5 -3 -7 -6 -4 -3 3 -29 -2 -57 -12
-28 -10 -55 -16 -59 -14 -5 3 -8 0 -8 -5 0 -6 -8 -11 -18 -11 -10 0 -22 -3
-26 -7 -3 -4 -16 -8 -28 -10 -12 -2 -28 -9 -37 -16 -12 -10 -13 -9 -6 3 6 12
5 13 -6 3 -7 -7 -24 -13 -37 -13 -13 0 -21 -4 -18 -8 4 -7 -3 -9 -59 -13 -14
-1 -25 -4 -25 -8 0 -6 -26 -11 -67 -14 -7 0 -13 -3 -13 -6 0 -7 -31 -12 -82
-15 -14 0 -24 -4 -21 -8 2 -5 -10 -9 -26 -9 -17 -1 -34 -2 -38 -3 -28 -8 -110
-20 -120 -18 -7 2 -13 -2 -13 -9 0 -8 -4 -8 -15 1 -8 7 -15 8 -15 3 0 -5 -21
-10 -47 -12 -26 -1 -51 -8 -55 -14 -6 -9 -8 -9 -8 0 0 7 -9 10 -22 7 -96 -21
-641 -22 -676 0 -5 3 -26 6 -48 7 -21 1 -45 7 -53 13 -11 8 -13 8 -7 -1 4 -7
2 -13 -3 -13 -6 0 -11 3 -11 8 0 4 -14 8 -32 9 -17 1 -36 7 -42 13 -5 5 -15
10 -20 10 -6 0 -4 -5 4 -11 12 -9 11 -9 -5 -4 -11 4 -31 10 -45 13 -14 2 -31
10 -39 16 -11 8 -13 8 -7 -1 4 -7 3 -13 -3 -13 -5 0 -13 5 -16 10 -3 6 -20 10
-36 10 -17 0 -28 4 -25 8 3 5 -11 9 -30 9 -20 0 -39 4 -42 9 -4 5 -11 9 -17 9
-18 0 -220 70 -223 78 -2 4 -10 7 -18 7 -8 0 -34 9 -56 20 -23 11 -48 20 -55
20 -7 0 -13 5 -13 10 0 6 -8 10 -17 10 -10 0 -33 9 -51 20 -18 11 -38 20 -45
20 -7 0 -24 10 -37 22 -14 13 -27 22 -30 21 -11 -5 -50 10 -61 23 -6 8 -19 14
-28 14 -10 0 -27 9 -39 20 -12 11 -27 20 -34 20 -7 0 -24 9 -38 20 -14 11 -31
20 -37 20 -7 0 -13 5 -13 11 0 5 -4 8 -9 4 -6 -3 -13 0 -18 7 -4 7 -29 24 -55
37 -27 13 -48 28 -48 32 0 5 -3 8 -7 7 -5 -1 -26 9 -48 23 -22 13 -44 23 -48
21 -5 -1 -6 2 -2 8 3 5 -1 10 -10 10 -9 0 -13 5 -10 10 3 6 -3 10 -14 10 -12
0 -21 4 -21 9 0 5 -8 12 -19 16 -10 3 -29 14 -41 25 -12 11 -27 17 -33 13 -6
-3 -7 -1 -3 5 4 7 3 12 -2 12 -4 0 -18 9 -30 20 -12 12 -22 18 -22 14 0 -4
-11 5 -25 20 -13 14 -28 26 -32 26 -4 0 -24 15 -44 33 -66 58 -92 76 -102 70
-6 -3 -7 -1 -4 4 6 9 -51 64 -89 86 -8 5 -12 13 -8 18 3 5 2 8 -3 7 -5 -2 -21
9 -37 25 -15 15 -32 24 -38 21 -6 -4 -8 -3 -5 3 4 6 -31 47 -76 93 -45 46 -81
87 -79 91 1 5 -4 9 -12 9 -8 0 -18 9 -21 20 -3 11 -13 20 -21 20 -8 0 -12 5
-9 10 3 6 1 10 -6 10 -7 0 -10 3 -7 6 4 3 -8 19 -24 35 -17 16 -28 29 -25 29
3 0 -4 10 -16 23 -12 12 -32 36 -44 52 -13 17 -36 47 -52 68 -43 56 -181 263
-181 272 0 5 -6 16 -14 24 -7 9 -28 44 -46 79 -18 35 -38 61 -44 59 -18 -6
-13 -57 10 -106 12 -25 20 -49 18 -52 -2 -4 1 -9 6 -11 6 -2 12 -10 13 -18 2
-8 7 -22 12 -30 5 -8 10 -19 11 -25 5 -27 92 -183 99 -177 5 4 5 1 1 -6 -4 -6
1 -24 12 -40 17 -25 85 -141 107 -183 5 -10 13 -19 18 -19 4 0 5 -5 2 -10 -3
-5 -2 -10 3 -10 5 0 26 -27 46 -60 21 -33 42 -60 47 -60 6 0 8 -4 5 -9 -4 -5
-3 -11 1 -13 5 -1 21 -22 37 -45 15 -24 41 -56 57 -73 16 -16 27 -30 23 -30
-5 0 12 -19 94 -105 18 -19 31 -35 28 -35 -2 0 47 -52 110 -115 62 -63 118
-115 123 -115 5 0 13 -9 16 -20 3 -11 10 -20 15 -20 5 0 22 -12 37 -26 15 -14
45 -40 67 -58 21 -17 56 -46 78 -63 22 -18 44 -33 50 -33 5 0 6 -4 3 -10 -3
-5 3 -10 14 -10 12 0 26 -9 33 -20 7 -11 18 -20 25 -20 7 0 13 -4 13 -10 0 -5
7 -10 15 -10 8 0 15 -4 15 -10 0 -5 6 -10 13 -10 8 0 22 -9 32 -20 10 -11 24
-20 31 -20 7 0 14 -3 16 -7 3 -8 159 -104 188 -117 8 -3 42 -21 75 -40 33 -19
63 -32 68 -29 4 2 7 0 7 -5 0 -5 19 -17 43 -27 23 -9 50 -21 60 -26 42 -22 54
-27 82 -39 17 -7 38 -16 47 -21 10 -5 22 -9 28 -9 6 0 29 -9 53 -19 55 -25
163 -61 183 -61 8 0 13 -4 10 -9 -4 -5 2 -8 11 -7 18 3 91 -18 125 -35 10 -5
27 -9 37 -9 11 0 46 -7 77 -15 31 -8 61 -12 67 -8 6 3 7 1 3 -5 -4 -6 1 -11
11 -10 17 1 51 -5 116 -18 16 -3 44 -6 63 -6 19 0 32 -3 30 -7 -3 -4 5 -7 17
-8 90 -3 126 -7 123 -12 -2 -3 21 -7 52 -7 32 -1 112 -3 180 -5 68 -1 125 -6
128 -11 3 -5 11 -5 17 -1 7 4 48 8 92 10 129 4 232 10 242 15 8 4 29 7 98 11
17 1 33 7 37 12 5 6 8 4 8 -5 0 -11 2 -12 8 -3 4 7 25 13 47 14 22 1 46 7 54
13 12 9 13 8 7 -2 -7 -11 -4 -12 10 -4 11 5 35 11 54 13 19 2 37 7 40 10 3 4
25 9 50 12 25 2 58 9 73 16 16 6 33 9 38 5 5 -3 9 -1 9 3 0 8 15 12 58 15 6 1
12 5 12 10 0 5 4 7 8 4 5 -3 21 2 36 10 32 16 49 19 26 4 -8 -5 -10 -10 -5
-10 6 1 18 7 28 15 11 7 26 11 35 8 10 -4 13 -2 8 5 -5 8 3 12 23 12 17 0 31
5 31 12 0 6 3 9 6 5 4 -3 28 2 55 12 26 10 50 16 53 13 4 -3 6 -1 6 4 0 10 88
40 103 36 5 -1 6 2 2 8 -3 5 1 10 10 10 8 0 38 11 65 25 28 14 52 25 55 25 3
0 28 11 57 25 28 14 58 25 65 25 8 0 11 4 8 10 -3 5 3 10 14 10 12 0 21 5 21
10 0 6 9 10 20 10 11 0 20 3 20 8 0 9 61 38 73 34 5 -1 6 2 2 8 -3 5 1 10 9
10 9 0 16 5 16 10 0 6 9 10 21 10 13 0 18 4 13 12 -4 6 -3 8 4 4 6 -3 17 1 25
9 9 8 23 15 32 15 9 0 13 4 10 10 -3 5 1 10 11 10 9 0 25 9 35 21 9 11 19 19
21 18 4 -4 55 29 120 78 31 24 62 43 68 43 6 0 9 4 5 9 -3 5 4 12 15 16 11 3
20 11 20 17 0 6 2 9 5 6 3 -3 21 9 39 26 90 85 138 126 147 126 6 0 7 5 4 10
-3 6 1 10 9 10 8 0 18 9 21 20 3 11 14 20 22 20 9 0 14 2 11 5 -3 3 16 27 43
54 26 27 45 51 42 55 -4 3 -2 6 4 6 5 0 30 25 54 56 24 32 51 64 59 73 8 9 29
37 45 61 17 25 35 50 40 57 23 28 30 40 33 53 2 8 9 18 15 22 7 4 8 8 2 8 -7
0 -7 3 0 8 6 4 19 24 30 45 11 20 23 37 27 37 5 0 7 3 6 8 -4 11 23 72 32 72
3 0 7 6 7 13 0 6 10 35 23 62 32 73 37 86 51 130 6 22 14 45 18 50 3 6 6 15 7
20 1 6 11 44 22 85 12 41 23 90 24 108 1 17 5 32 8 32 3 0 6 8 6 18 0 9 4 51
8 92 5 41 8 100 8 130 1 73 -12 252 -19 263 -3 4 -7 23 -10 40 -6 39 -8 48
-16 67 -7 19 -31 93 -32 100 -2 16 -103 200 -115 210 -3 3 -21 25 -40 50 -41
54 -139 150 -152 150 -5 0 -6 5 -3 10 3 6 1 10 -6 10 -6 0 -20 9 -30 21 -9 11
-20 20 -23 20 -19 -3 -28 0 -23 5 6 7 -62 48 -135 82 -21 9 -38 20 -38 24 0 5
-7 8 -15 8 -8 0 -23 4 -33 9 -48 25 -72 33 -95 34 -14 1 -23 5 -20 10 2 4 -7
7 -21 7 -14 0 -26 4 -26 8 0 5 -14 9 -31 10 -17 0 -37 6 -45 13 -8 6 -17 9
-20 6 -3 -3 -32 1 -64 9 -32 7 -84 14 -114 15 -30 1 -53 6 -50 10 2 4 -5 7
-16 6 -11 -1 -20 -6 -20 -12 0 -6 -3 -5 -8 1 -7 13 -377 14 -418 2 -11 -3 -38
-8 -60 -9 -21 -2 -42 -7 -45 -11 -3 -5 -22 -9 -42 -10 -20 -1 -37 -4 -37 -7 0
-4 -10 -8 -22 -9 -37 -5 -52 -8 -68 -15 -8 -4 -25 -8 -37 -10 -12 -2 -26 -6
-29 -10 -4 -4 -20 -7 -35 -7 -15 0 -29 -4 -31 -9 -1 -6 -14 -12 -28 -14 -14
-2 -32 -7 -40 -10 -8 -3 -24 -7 -35 -9 -11 -2 -23 -6 -26 -10 -3 -5 -17 -9
-32 -10 -15 -1 -27 -6 -27 -10 0 -4 -11 -8 -24 -8 -14 0 -28 -4 -31 -10 -3 -5
-17 -10 -31 -10 -13 0 -24 -4 -24 -10 0 -5 -14 -10 -31 -10 -17 0 -28 -4 -24
-10 5 -8 -22 -13 -51 -9 -4 0 -10 -4 -14 -11 -4 -6 -17 -12 -28 -13 -12 -1
-22 -4 -22 -7 0 -4 -6 -7 -12 -8 -28 -2 -102 -28 -150 -53 -10 -5 -27 -9 -37
-9 -11 0 -22 -4 -25 -8 -3 -4 -28 -14 -55 -22 -28 -7 -51 -17 -51 -20 0 -4
-25 -13 -55 -20 -31 -7 -58 -17 -61 -22 -3 -4 -16 -8 -30 -8 -17 0 -23 -4 -18
-12 4 -6 3 -8 -3 -5 -6 4 -47 -6 -92 -23 -44 -16 -81 -26 -81 -23 0 3 -6 0
-14 -6 -7 -6 -25 -12 -39 -13 -14 -1 -23 -6 -21 -10 4 -7 -26 -11 -52 -7 -4 0
-10 -4 -13 -9 -3 -6 -20 -12 -36 -14 -17 -2 -33 -6 -36 -10 -3 -5 -17 -9 -32
-10 -15 -1 -27 -6 -27 -10 0 -4 -15 -8 -34 -8 -19 0 -38 -4 -41 -10 -3 -5 -23
-10 -44 -10 -20 0 -41 -4 -47 -10 -5 -5 -23 -11 -39 -12 -17 -1 -34 -5 -40 -9
-5 -4 -26 -9 -45 -10 -19 -2 -38 -7 -41 -11 -3 -5 -29 -9 -57 -9 -28 -1 -50
-5 -47 -9 2 -4 -10 -7 -28 -8 -46 -2 -118 -11 -126 -17 -4 -2 -41 -5 -82 -6
-41 -1 -80 -7 -88 -13 -11 -8 -13 -8 -7 2 4 6 3 12 -3 12 -5 0 -13 -5 -16 -10
-4 -6 -13 -7 -23 -1 -21 11 -31 11 -58 1 -13 -5 -26 -4 -33 3 -8 8 -11 8 -11
-2 0 -7 -5 -9 -12 -4 -20 12 -39 12 -32 1 4 -7 2 -8 -5 -4 -6 4 -53 10 -103
12 -51 3 -97 8 -102 13 -6 4 -31 9 -56 10 -24 1 -47 5 -50 9 -3 4 -21 9 -40
11 -19 2 -37 6 -40 10 -3 3 -18 8 -34 9 -16 2 -44 12 -63 23 -18 10 -38 19
-43 19 -12 0 -103 41 -110 50 -3 3 -21 14 -41 23 -20 9 -42 23 -49 32 -7 8
-18 15 -24 15 -7 0 -22 11 -34 25 -13 15 -28 23 -35 19 -7 -4 -9 -4 -5 0 4 5
-15 29 -41 55 -51 49 -131 151 -131 167 0 6 -6 16 -12 23 -7 6 -13 15 -14 19
0 4 -8 24 -17 46 -9 21 -17 42 -17 47 0 5 -17 17 -37 27 -21 9 -41 21 -44 25
-3 5 -9 8 -13 8 -25 -4 -36 0 -30 11 4 6 3 8 -3 5 -6 -4 -30 7 -54 23 -24 16
-48 30 -52 30 -5 0 -15 6 -22 13 -33 29 -45 37 -53 37 -6 0 -20 13 -33 30 -32
40 -50 39 -45 -2z"/>
</g>
</svg>
